<svg xmlns="http://www.w3.org/2000/svg" version="1.1" xmlns:xlink="http://www.w3.org/1999/xlink" xmlns:svgjs="http://svgjs.dev/svgjs" width="1000" height="1000"><style>
    #light-icon {
      display: inline;
    }
    #dark-icon {
      display: none;
    }

    @media (prefers-color-scheme: dark) {
      #light-icon {
        display: none;
      }
      #dark-icon {
        display: inline;
      }
    }
  </style><g id="light-icon"><svg xmlns="http://www.w3.org/2000/svg" version="1.1" xmlns:xlink="http://www.w3.org/1999/xlink" xmlns:svgjs="http://svgjs.dev/svgjs" width="1000" height="1000"><g clip-path="url(#SvgjsClipPath1053)"><rect width="1000" height="1000" fill="#000000"></rect><g transform="matrix(0.9259259259259259,0,0,0.9259259259259259,0,0)"><svg xmlns="http://www.w3.org/2000/svg" version="1.1" xmlns:xlink="http://www.w3.org/1999/xlink" xmlns:svgjs="http://svgjs.dev/svgjs" width="1080" height="1080"><svg xmlns="http://www.w3.org/2000/svg" xmlns:xlink="http://www.w3.org/1999/xlink" version="1.1" width="1080" height="1080" viewBox="0 0 1080 1080" xml:space="preserve">
<desc>Created with Fabric.js 5.2.4</desc>
<defs>
<clipPath id="SvgjsClipPath1053"><rect width="1000" height="1000" x="0" y="0" rx="350" ry="350"></rect></clipPath></defs>
<rect x="0" y="0" width="100%" height="100%" fill="transparent"></rect>
<g transform="matrix(1 0 0 1 540 540)" id="debea63c-c6da-42e4-8ee3-9ea37f5b4041">
</g>
<g transform="matrix(1 0 0 1 540 540)" id="cd92997e-e1ec-43df-9e43-2b67f9747d4b">
<rect style="stroke: none; stroke-width: 1; stroke-dasharray: none; stroke-linecap: butt; stroke-dashoffset: 0; stroke-linejoin: miter; stroke-miterlimit: 4; fill: rgb(0,0,0); fill-opacity: 0; fill-rule: nonzero; opacity: 1;" vector-effect="non-scaling-stroke" x="-540" y="-540" rx="0" ry="0" width="1080" height="1080"></rect>
</g>
<g transform="matrix(0.76 0 0 0.76 540.66 540.85)">
<path style="stroke: rgb(0,0,0); stroke-width: 0; stroke-dasharray: none; stroke-linecap: butt; stroke-dashoffset: 0; stroke-linejoin: miter; stroke-miterlimit: 4; fill: rgb(255,255,255); fill-rule: nonzero; opacity: 1;" vector-effect="non-scaling-stroke" transform=" translate(-885.83, -1001.84)" d="M 472.441 885.827 C 472.441 773.295 517.503 671.205 590.551 596.633 C 624.46 562.016 664.4 533.329 708.661 512.279 C 745.382 494.816 785.077 482.61 826.772 476.635 C 846.061 473.871 865.778 472.441 885.827 472.441 C 905.875 472.441 925.593 473.871 944.882 476.635 C 986.577 482.61 1026.27 494.816 1062.99 512.279 C 1107.25 533.329 1147.19 562.016 1181.1 596.633 C 1254.15 671.205 1299.21 773.295 1299.21 885.827 C 1299.21 926.861 1293.22 966.507 1282.07 1003.94 C 1262.63 1069.15 1227.51 1127.64 1181.1 1175.02 C 1179.16 1177 1177.2 1178.96 1175.23 1180.9 C 1142.61 1212.89 1104.72 1239.53 1062.99 1259.37 C 1026.27 1276.84 986.577 1289.04 944.882 1295.02 C 925.593 1297.78 905.875 1299.21 885.827 1299.21 C 865.778 1299.21 846.061 1297.78 826.772 1295.02 L 826.772 1531.24 C 785.077 1525.26 745.382 1513.06 708.661 1495.6 L 708.661 1358.22 L 708.661 1122.05 L 708.661 1122 L 708.661 885.873 L 708.661 885.827 L 708.661 649.652 C 651.93 692.293 611.032 754.887 596.428 826.972 C 592.574 845.994 590.551 865.676 590.551 885.827 L 590.551 1122.05 L 590.551 1175.02 L 590.551 1411.24 C 517.503 1336.67 472.441 1234.58 472.441 1122.05 L 472.441 885.827 Z M 944.882 596.469 C 925.798 592.588 906.049 590.551 885.827 590.551 C 865.605 590.551 845.855 592.588 826.772 596.469 L 826.772 718.759 C 845.246 712.22 865.124 708.661 885.827 708.661 C 906.529 708.661 926.407 712.22 944.882 718.759 C 1013.66 743.102 1062.99 808.749 1062.99 885.827 L 1062.99 885.873 C 1062.98 931.212 1045.9 972.594 1017.83 1003.94 C 998.2 1025.86 973.188 1042.88 944.882 1052.89 C 926.407 1059.43 906.529 1062.99 885.827 1062.99 C 865.124 1062.99 845.246 1059.43 826.772 1052.89 L 826.772 1175.18 C 845.855 1179.07 865.605 1181.1 885.827 1181.1 C 906.049 1181.1 925.798 1179.07 944.882 1175.18 C 988.507 1166.32 1028.65 1147.81 1062.99 1122 C 1103.5 1091.55 1135.94 1050.93 1156.5 1003.94 C 1172.32 967.76 1181.1 927.811 1181.1 885.827 C 1181.1 865.676 1179.08 845.994 1175.23 826.972 C 1160.62 754.887 1119.72 692.293 1062.99 649.652 C 1028.65 623.84 988.507 605.339 944.882 596.469 Z" stroke-linecap="round"></path>
</g>
</svg></svg></g></g></svg></g><g id="dark-icon"><svg xmlns="http://www.w3.org/2000/svg" version="1.1" xmlns:xlink="http://www.w3.org/1999/xlink" xmlns:svgjs="http://svgjs.dev/svgjs" width="1000" height="1000"><g><g transform="matrix(0.9259259259259259,0,0,0.9259259259259259,0,0)"><svg xmlns="http://www.w3.org/2000/svg" version="1.1" xmlns:xlink="http://www.w3.org/1999/xlink" xmlns:svgjs="http://svgjs.dev/svgjs" width="1080" height="1080"><svg xmlns="http://www.w3.org/2000/svg" xmlns:xlink="http://www.w3.org/1999/xlink" version="1.1" width="1080" height="1080" viewBox="0 0 1080 1080" xml:space="preserve">
<desc>Created with Fabric.js 5.2.4</desc>
<defs>
</defs>
<rect x="0" y="0" width="100%" height="100%" fill="transparent"></rect>
<g transform="matrix(1 0 0 1 540 540)" id="debea63c-c6da-42e4-8ee3-9ea37f5b4041">
</g>
<g transform="matrix(1 0 0 1 540 540)" id="cd92997e-e1ec-43df-9e43-2b67f9747d4b">
<rect style="stroke: none; stroke-width: 1; stroke-dasharray: none; stroke-linecap: butt; stroke-dashoffset: 0; stroke-linejoin: miter; stroke-miterlimit: 4; fill: rgb(0,0,0); fill-opacity: 0; fill-rule: nonzero; opacity: 1;" vector-effect="non-scaling-stroke" x="-540" y="-540" rx="0" ry="0" width="1080" height="1080"></rect>
</g>
<g transform="matrix(0.76 0 0 0.76 540.66 540.85)">
<path style="stroke: rgb(0,0,0); stroke-width: 0; stroke-dasharray: none; stroke-linecap: butt; stroke-dashoffset: 0; stroke-linejoin: miter; stroke-miterlimit: 4; fill: rgb(255,255,255); fill-rule: nonzero; opacity: 1;" vector-effect="non-scaling-stroke" transform=" translate(-885.83, -1001.84)" d="M 472.441 885.827 C 472.441 773.295 517.503 671.205 590.551 596.633 C 624.46 562.016 664.4 533.329 708.661 512.279 C 745.382 494.816 785.077 482.61 826.772 476.635 C 846.061 473.871 865.778 472.441 885.827 472.441 C 905.875 472.441 925.593 473.871 944.882 476.635 C 986.577 482.61 1026.27 494.816 1062.99 512.279 C 1107.25 533.329 1147.19 562.016 1181.1 596.633 C 1254.15 671.205 1299.21 773.295 1299.21 885.827 C 1299.21 926.861 1293.22 966.507 1282.07 1003.94 C 1262.63 1069.15 1227.51 1127.64 1181.1 1175.02 C 1179.16 1177 1177.2 1178.96 1175.23 1180.9 C 1142.61 1212.89 1104.72 1239.53 1062.99 1259.37 C 1026.27 1276.84 986.577 1289.04 944.882 1295.02 C 925.593 1297.78 905.875 1299.21 885.827 1299.21 C 865.778 1299.21 846.061 1297.78 826.772 1295.02 L 826.772 1531.24 C 785.077 1525.26 745.382 1513.06 708.661 1495.6 L 708.661 1358.22 L 708.661 1122.05 L 708.661 1122 L 708.661 885.873 L 708.661 885.827 L 708.661 649.652 C 651.93 692.293 611.032 754.887 596.428 826.972 C 592.574 845.994 590.551 865.676 590.551 885.827 L 590.551 1122.05 L 590.551 1175.02 L 590.551 1411.24 C 517.503 1336.67 472.441 1234.58 472.441 1122.05 L 472.441 885.827 Z M 944.882 596.469 C 925.798 592.588 906.049 590.551 885.827 590.551 C 865.605 590.551 845.855 592.588 826.772 596.469 L 826.772 718.759 C 845.246 712.22 865.124 708.661 885.827 708.661 C 906.529 708.661 926.407 712.22 944.882 718.759 C 1013.66 743.102 1062.99 808.749 1062.99 885.827 L 1062.99 885.873 C 1062.98 931.212 1045.9 972.594 1017.83 1003.94 C 998.2 1025.86 973.188 1042.88 944.882 1052.89 C 926.407 1059.43 906.529 1062.99 885.827 1062.99 C 865.124 1062.99 845.246 1059.43 826.772 1052.89 L 826.772 1175.18 C 845.855 1179.07 865.605 1181.1 885.827 1181.1 C 906.049 1181.1 925.798 1179.07 944.882 1175.18 C 988.507 1166.32 1028.65 1147.81 1062.99 1122 C 1103.5 1091.55 1135.94 1050.93 1156.5 1003.94 C 1172.32 967.76 1181.1 927.811 1181.1 885.827 C 1181.1 865.676 1179.08 845.994 1175.23 826.972 C 1160.62 754.887 1119.72 692.293 1062.99 649.652 C 1028.65 623.84 988.507 605.339 944.882 596.469 Z" stroke-linecap="round"></path>
</g>
</svg></svg></g></g></svg></g></svg>