<?xml version="1.0" encoding="UTF-8" standalone="no"?>
<!DOCTYPE svg PUBLIC "-//W3C//DTD SVG 1.1//EN" "http://www.w3.org/Graphics/SVG/1.1/DTD/svg11.dtd">
<svg width="100%" height="100%" viewBox="0 0 4558 1074" version="1.1" xmlns="http://www.w3.org/2000/svg" xmlns:xlink="http://www.w3.org/1999/xlink" xml:space="preserve" xmlns:serif="http://www.serif.com/" style="fill-rule:evenodd;clip-rule:evenodd;stroke-linejoin:round;stroke-miterlimit:2;">
    <g transform="matrix(1,0,0,1,-479.018,-4724.41)">
        <g>
            <g transform="matrix(11.8067,0,0,11.6066,-15277.7,-314.935)">
                <g transform="matrix(50,0,0,50,1420.08,475.278)">
                    <path d="M0.334,-0.814L0.09,-0.814L0.09,-0L0.166,-0L0.166,-0.328L0.334,-0.328C0.469,-0.328 0.577,-0.434 0.577,-0.571C0.577,-0.707 0.469,-0.814 0.334,-0.814ZM0.334,-0.4L0.167,-0.4L0.167,-0.742L0.334,-0.742C0.426,-0.742 0.497,-0.664 0.497,-0.571C0.497,-0.477 0.426,-0.4 0.334,-0.4Z" style="fill-rule:nonzero;"/>
                </g>
                <g transform="matrix(50,0,0,50,1451.43,475.278)">
                    <path d="M0.381,-0.478L0.381,-0.184C0.381,-0.114 0.333,-0.061 0.264,-0.061C0.195,-0.061 0.146,-0.114 0.146,-0.184L0.146,-0.478L0.07,-0.478L0.07,-0.184C0.07,-0.075 0.156,0.011 0.264,0.011C0.372,0.011 0.457,-0.075 0.457,-0.184L0.457,-0.478L0.381,-0.478Z" style="fill-rule:nonzero;"/>
                </g>
                <g transform="matrix(50,0,0,50,1477.78,475.278)">
                    <path d="M0.078,-0L0.154,-0L0.154,-0.068C0.19,-0.017 0.259,0.011 0.314,0.011C0.453,0.011 0.558,-0.094 0.558,-0.245C0.558,-0.381 0.469,-0.499 0.317,-0.499C0.256,-0.499 0.195,-0.472 0.154,-0.42L0.154,-0.814L0.078,-0.814L0.078,-0ZM0.151,-0.244C0.151,-0.357 0.222,-0.427 0.317,-0.427C0.414,-0.427 0.48,-0.352 0.48,-0.245C0.48,-0.138 0.414,-0.061 0.317,-0.061C0.222,-0.061 0.151,-0.132 0.151,-0.244Z" style="fill-rule:nonzero;"/>
                </g>
                <g transform="matrix(50,0,0,50,1507.93,475.278)">
                    <rect x="0.078" y="-0.814" width="0.076" height="0.814" style="fill-rule:nonzero;"/>
                </g>
                <g transform="matrix(50,0,0,50,1519.53,475.278)">
                    <path d="M0.075,-0.488L0.075,-0L0.153,-0L0.153,-0.488L0.075,-0.488ZM0.114,-0.723C0.086,-0.723 0.063,-0.699 0.063,-0.671C0.063,-0.643 0.086,-0.619 0.114,-0.619C0.143,-0.619 0.166,-0.643 0.166,-0.671C0.166,-0.699 0.143,-0.723 0.114,-0.723Z" style="fill-rule:nonzero;"/>
                </g>
                <g transform="matrix(50,0,0,50,1530.73,475.278)">
                    <path d="M0.412,-0.099C0.383,-0.075 0.345,-0.061 0.298,-0.061C0.198,-0.061 0.121,-0.141 0.121,-0.244C0.121,-0.346 0.198,-0.427 0.298,-0.427C0.344,-0.427 0.381,-0.413 0.409,-0.39L0.446,-0.454C0.407,-0.483 0.357,-0.499 0.298,-0.499C0.157,-0.499 0.045,-0.387 0.045,-0.244C0.045,-0.1 0.157,0.011 0.298,0.011C0.36,0.011 0.412,-0.007 0.453,-0.038L0.412,-0.099Z" style="fill-rule:nonzero;"/>
                </g>
                <g transform="matrix(50.4903,0,0,50.4903,1570.43,475.278)">
                    <rect x="0.09" y="-0.814" width="0.078" height="0.814" style="fill-rule:nonzero;"/>
                </g>
                <g transform="matrix(50.4903,0,0,50.4903,1583.46,475.278)">
                    <path d="M0.727,-0.314C0.727,-0.426 0.655,-0.499 0.566,-0.499C0.502,-0.499 0.46,-0.482 0.409,-0.428C0.383,-0.468 0.34,-0.499 0.28,-0.499C0.222,-0.499 0.186,-0.474 0.151,-0.439L0.151,-0.488L0.075,-0.488L0.075,-0L0.151,-0L0.151,-0.316C0.151,-0.377 0.196,-0.425 0.257,-0.425C0.306,-0.425 0.363,-0.406 0.363,-0.316L0.363,-0L0.438,-0L0.438,-0.316C0.438,-0.377 0.484,-0.425 0.545,-0.425C0.594,-0.425 0.651,-0.406 0.651,-0.316L0.651,-0L0.727,-0L0.727,-0.314Z" style="fill-rule:nonzero;"/>
                </g>
                <g transform="matrix(50.4903,0,0,50.4903,1623.7,475.278)">
                    <path d="M0.078,0.221L0.154,0.221L0.154,-0.068C0.195,-0.016 0.257,0.011 0.318,0.011C0.47,0.011 0.559,-0.107 0.559,-0.243C0.559,-0.394 0.454,-0.499 0.315,-0.499C0.26,-0.499 0.19,-0.471 0.154,-0.42L0.154,-0.488L0.078,-0.488L0.078,0.221ZM0.151,-0.244C0.151,-0.356 0.223,-0.427 0.318,-0.427C0.415,-0.427 0.481,-0.35 0.481,-0.243C0.481,-0.136 0.415,-0.061 0.318,-0.061C0.223,-0.061 0.151,-0.131 0.151,-0.244Z" style="fill-rule:nonzero;"/>
                </g>
                <g transform="matrix(50.4903,0,0,50.4903,1654.2,475.278)">
                    <path d="M0.456,-0.266C0.456,-0.381 0.43,-0.499 0.257,-0.499C0.219,-0.499 0.147,-0.492 0.075,-0.454L0.106,-0.388C0.162,-0.419 0.218,-0.427 0.256,-0.427C0.339,-0.427 0.371,-0.397 0.378,-0.31C0.25,-0.334 0.16,-0.326 0.103,-0.28C0.054,-0.241 0.04,-0.188 0.04,-0.15C0.04,-0.048 0.13,0.011 0.216,0.011C0.257,0.011 0.321,0.008 0.38,-0.055L0.38,-0L0.456,-0L0.456,-0.266ZM0.38,-0.2C0.38,-0.112 0.327,-0.065 0.225,-0.061C0.127,-0.057 0.118,-0.137 0.118,-0.15C0.118,-0.182 0.129,-0.208 0.15,-0.224C0.18,-0.247 0.238,-0.268 0.38,-0.239L0.38,-0.2Z" style="fill-rule:nonzero;"/>
                </g>
                <g transform="matrix(50.4903,0,0,50.4903,1680.76,475.278)">
                    <path d="M0.412,-0.099C0.383,-0.075 0.345,-0.061 0.298,-0.061C0.198,-0.061 0.121,-0.141 0.121,-0.244C0.121,-0.346 0.198,-0.427 0.298,-0.427C0.344,-0.427 0.381,-0.413 0.409,-0.39L0.446,-0.454C0.407,-0.483 0.357,-0.499 0.298,-0.499C0.157,-0.499 0.045,-0.387 0.045,-0.244C0.045,-0.1 0.157,0.011 0.298,0.011C0.36,0.011 0.412,-0.007 0.453,-0.038L0.412,-0.099Z" style="fill-rule:nonzero;"/>
                </g>
                <g transform="matrix(50.4903,0,0,50.4903,1705.65,475.278)">
                    <path d="M0.256,-0.077C0.245,-0.067 0.23,-0.061 0.214,-0.061C0.178,-0.061 0.162,-0.092 0.162,-0.121L0.162,-0.418L0.262,-0.418L0.262,-0.488L0.162,-0.488L0.162,-0.671L0.086,-0.671L0.086,-0.488L0.04,-0.488L0.04,-0.418L0.086,-0.418L0.086,-0.121C0.086,-0.046 0.142,0.011 0.213,0.011C0.245,0.011 0.274,-0 0.296,-0.018L0.256,-0.077Z" style="fill-rule:nonzero;"/>
                </g>
            </g>
            <g transform="matrix(1,0,0,1,6.57693,4256.56)">
                <path d="M472.441,885.827C472.441,773.295 517.503,671.205 590.551,596.633C624.46,562.016 664.4,533.329 708.661,512.279C745.382,494.816 785.077,482.61 826.772,476.635C846.061,473.871 865.778,472.441 885.827,472.441C905.875,472.441 925.593,473.871 944.882,476.635C986.577,482.61 1026.27,494.816 1062.99,512.279C1107.25,533.329 1147.19,562.016 1181.1,596.633C1254.15,671.205 1299.21,773.295 1299.21,885.827C1299.21,926.861 1293.22,966.507 1282.07,1003.94C1262.63,1069.15 1227.51,1127.64 1181.1,1175.02C1179.16,1177 1177.2,1178.96 1175.23,1180.9C1142.61,1212.89 1104.72,1239.53 1062.99,1259.37C1026.27,1276.84 986.577,1289.04 944.882,1295.02C925.593,1297.78 905.875,1299.21 885.827,1299.21C865.778,1299.21 846.061,1297.78 826.772,1295.02L826.772,1531.24C785.077,1525.26 745.382,1513.06 708.661,1495.6L708.661,1358.22L708.661,1122.05L708.661,1122L708.661,885.873L708.661,885.827L708.661,649.652C651.93,692.293 611.032,754.887 596.428,826.972C592.574,845.994 590.551,865.676 590.551,885.827L590.551,1122.05L590.551,1175.02L590.551,1411.24C517.503,1336.67 472.441,1234.58 472.441,1122.05L472.441,885.827ZM944.882,596.469C925.798,592.588 906.049,590.551 885.827,590.551C865.605,590.551 845.855,592.588 826.772,596.469L826.772,718.759C845.246,712.22 865.124,708.661 885.827,708.661C906.529,708.661 926.407,712.22 944.882,718.759C1013.66,743.102 1062.99,808.749 1062.99,885.827L1062.99,885.873C1062.98,931.212 1045.9,972.594 1017.83,1003.94C998.2,1025.86 973.188,1042.88 944.882,1052.89C926.407,1059.43 906.529,1062.99 885.827,1062.99C865.124,1062.99 845.246,1059.43 826.772,1052.89L826.772,1175.18C845.855,1179.07 865.605,1181.1 885.827,1181.1C906.049,1181.1 925.798,1179.07 944.882,1175.18C988.507,1166.32 1028.65,1147.81 1062.99,1122C1103.5,1091.55 1135.94,1050.93 1156.5,1003.94C1172.32,967.76 1181.1,927.811 1181.1,885.827C1181.1,865.676 1179.08,845.994 1175.23,826.972C1160.62,754.887 1119.72,692.293 1062.99,649.652C1028.65,623.84 988.507,605.339 944.882,596.469Z" style="fill:rgb(0,103,155);"/>
            </g>
            <g transform="matrix(11.8067,0,0,11.6066,-15277.7,275.362)">
                <g transform="matrix(50,0,0,50,1420.08,475.278)">
                    <path d="M0.334,-0.814L0.09,-0.814L0.09,-0L0.166,-0L0.166,-0.328L0.334,-0.328C0.469,-0.328 0.577,-0.434 0.577,-0.571C0.577,-0.707 0.469,-0.814 0.334,-0.814ZM0.334,-0.4L0.167,-0.4L0.167,-0.742L0.334,-0.742C0.426,-0.742 0.497,-0.664 0.497,-0.571C0.497,-0.477 0.426,-0.4 0.334,-0.4Z" style="fill-rule:nonzero;"/>
                </g>
                <g transform="matrix(50,0,0,50,1448.43,475.278)">
                    <path d="M0.456,-0.266C0.456,-0.381 0.43,-0.499 0.257,-0.499C0.219,-0.499 0.147,-0.492 0.075,-0.454L0.106,-0.388C0.162,-0.419 0.218,-0.427 0.256,-0.427C0.339,-0.427 0.371,-0.397 0.378,-0.31C0.25,-0.334 0.16,-0.326 0.103,-0.28C0.054,-0.241 0.04,-0.188 0.04,-0.15C0.04,-0.048 0.13,0.011 0.216,0.011C0.257,0.011 0.321,0.008 0.38,-0.055L0.38,-0L0.456,-0L0.456,-0.266ZM0.38,-0.2C0.38,-0.112 0.327,-0.065 0.225,-0.061C0.127,-0.057 0.118,-0.137 0.118,-0.15C0.118,-0.182 0.129,-0.208 0.15,-0.224C0.18,-0.247 0.238,-0.268 0.38,-0.239L0.38,-0.2Z" style="fill-rule:nonzero;"/>
                </g>
                <g transform="matrix(50,0,0,50,1474.73,475.278)">
                    <path d="M0.287,-0.499C0.229,-0.499 0.182,-0.471 0.151,-0.429L0.151,-0.488L0.075,-0.488L0.075,-0L0.151,-0L0.151,-0.311C0.151,-0.376 0.202,-0.427 0.267,-0.427C0.294,-0.427 0.325,-0.422 0.347,-0.403L0.385,-0.475C0.357,-0.491 0.323,-0.499 0.287,-0.499Z" style="fill-rule:nonzero;"/>
                </g>
                <g transform="matrix(50,0,0,50,1495.23,475.278)">
                    <path d="M0.256,-0.077C0.245,-0.067 0.23,-0.061 0.214,-0.061C0.178,-0.061 0.162,-0.092 0.162,-0.121L0.162,-0.418L0.262,-0.418L0.262,-0.488L0.162,-0.488L0.162,-0.671L0.086,-0.671L0.086,-0.488L0.04,-0.488L0.04,-0.418L0.086,-0.418L0.086,-0.121C0.086,-0.046 0.142,0.011 0.213,0.011C0.245,0.011 0.274,-0 0.296,-0.018L0.256,-0.077Z" style="fill-rule:nonzero;"/>
                </g>
                <g transform="matrix(50,0,0,50,1511.28,475.278)">
                    <path d="M0.469,-0.3C0.469,-0.424 0.39,-0.499 0.293,-0.499C0.243,-0.499 0.198,-0.486 0.151,-0.439L0.151,-0.488L0.075,-0.488L0.075,-0L0.151,-0L0.151,-0.3C0.151,-0.37 0.203,-0.427 0.272,-0.427C0.329,-0.427 0.393,-0.406 0.393,-0.303L0.393,-0L0.469,-0L0.469,-0.3Z" style="fill-rule:nonzero;"/>
                </g>
                <g transform="matrix(50,0,0,50,1538.23,475.278)">
                    <path d="M0.44,-0.119C0.402,-0.083 0.354,-0.061 0.29,-0.061C0.193,-0.061 0.123,-0.137 0.123,-0.228L0.501,-0.228C0.504,-0.39 0.421,-0.499 0.281,-0.499C0.145,-0.499 0.045,-0.391 0.045,-0.243C0.045,-0.093 0.147,0.011 0.29,0.011C0.372,0.011 0.436,-0.015 0.488,-0.064L0.44,-0.119ZM0.281,-0.427C0.368,-0.427 0.406,-0.365 0.421,-0.301L0.129,-0.301C0.15,-0.382 0.208,-0.427 0.281,-0.427Z" style="fill-rule:nonzero;"/>
                </g>
                <g transform="matrix(50,0,0,50,1565.28,475.278)">
                    <path d="M0.287,-0.499C0.229,-0.499 0.182,-0.471 0.151,-0.429L0.151,-0.488L0.075,-0.488L0.075,-0L0.151,-0L0.151,-0.311C0.151,-0.376 0.202,-0.427 0.267,-0.427C0.294,-0.427 0.325,-0.422 0.347,-0.403L0.385,-0.475C0.357,-0.491 0.323,-0.499 0.287,-0.499Z" style="fill-rule:nonzero;"/>
                </g>
                <g transform="matrix(50,0,0,50,1585.78,475.278)">
                    <path d="M0.224,-0.282C0.168,-0.298 0.13,-0.305 0.13,-0.359C0.13,-0.412 0.189,-0.427 0.221,-0.427C0.263,-0.427 0.301,-0.41 0.331,-0.38L0.376,-0.437C0.334,-0.477 0.28,-0.499 0.221,-0.499C0.139,-0.499 0.054,-0.451 0.054,-0.359C0.054,-0.248 0.147,-0.226 0.204,-0.21C0.285,-0.187 0.308,-0.182 0.308,-0.129C0.308,-0.065 0.226,-0.061 0.209,-0.061C0.162,-0.061 0.118,-0.084 0.083,-0.121L0.04,-0.061C0.087,-0.015 0.146,0.011 0.209,0.011C0.296,0.011 0.384,-0.032 0.384,-0.129C0.384,-0.24 0.302,-0.26 0.224,-0.282Z" style="fill-rule:nonzero;"/>
                </g>
            </g>
        </g>
    </g>
</svg>
